<mxfile host="Electron" modified="2024-05-23T17:14:25.118Z" agent="Mozilla/5.0 (Macintosh; Intel Mac OS X 10_15_7) AppleWebKit/537.36 (KHTML, like Gecko) draw.io/24.4.6 Chrome/124.0.6367.207 Electron/30.0.6 Safari/537.36" etag="apy34p5A7a-FYl1D79to" version="24.4.6" type="device">
  <diagram name="ページ1" id="u0D0Dxt_LZlAoxTuACNW">
    <mxGraphModel dx="1434" dy="854" grid="1" gridSize="10" guides="1" tooltips="1" connect="1" arrows="1" fold="1" page="1" pageScale="1" pageWidth="827" pageHeight="1169" math="0" shadow="0">
      <root>
        <mxCell id="0" />
        <mxCell id="1" parent="0" />
        <mxCell id="CEC4rvlmtcEz_lNYIboy-12" value="" style="curved=1;endArrow=classic;html=1;rounded=0;sketch=1;hachureGap=4;jiggle=2;curveFitting=1;fontFamily=Architects Daughter;fontSource=https%3A%2F%2Ffonts.googleapis.com%2Fcss%3Ffamily%3DArchitects%2BDaughter;" edge="1" parent="1" source="CEC4rvlmtcEz_lNYIboy-2" target="CEC4rvlmtcEz_lNYIboy-6">
          <mxGeometry width="50" height="50" relative="1" as="geometry">
            <mxPoint x="330" y="480" as="sourcePoint" />
            <mxPoint x="560" y="502" as="targetPoint" />
            <Array as="points">
              <mxPoint x="240" y="300" />
              <mxPoint x="310" y="290" />
            </Array>
          </mxGeometry>
        </mxCell>
        <mxCell id="CEC4rvlmtcEz_lNYIboy-1" value="xxxx説明書&lt;font face=&quot;Helvetica&quot;&gt;202204.txt&lt;/font&gt;&lt;div&gt;&lt;font face=&quot;Helvetica&quot;&gt;&lt;br&gt;&lt;/font&gt;&lt;/div&gt;" style="sketch=0;pointerEvents=1;shadow=0;dashed=0;html=1;strokeColor=none;fillColor=#505050;labelPosition=center;verticalLabelPosition=bottom;verticalAlign=top;outlineConnect=0;align=center;shape=mxgraph.office.concepts.document;hachureGap=4;jiggle=2;curveFitting=1;fontFamily=Architects Daughter;fontSource=https%3A%2F%2Ffonts.googleapis.com%2Fcss%3Ffamily%3DArchitects%2BDaughter;" vertex="1" parent="1">
          <mxGeometry x="140" y="110" width="110" height="110" as="geometry" />
        </mxCell>
        <mxCell id="CEC4rvlmtcEz_lNYIboy-2" value="xxxx説明書&lt;font face=&quot;Helvetica&quot;&gt;202304.txt&lt;/font&gt;&lt;div&gt;&lt;font face=&quot;Helvetica&quot;&gt;&lt;br&gt;&lt;/font&gt;&lt;/div&gt;" style="sketch=0;pointerEvents=1;shadow=0;dashed=0;html=1;strokeColor=none;fillColor=#505050;labelPosition=center;verticalLabelPosition=bottom;verticalAlign=top;outlineConnect=0;align=center;shape=mxgraph.office.concepts.document;hachureGap=4;jiggle=2;curveFitting=1;fontFamily=Architects Daughter;fontSource=https%3A%2F%2Ffonts.googleapis.com%2Fcss%3Ffamily%3DArchitects%2BDaughter;" vertex="1" parent="1">
          <mxGeometry x="140" y="340" width="110" height="110" as="geometry" />
        </mxCell>
        <mxCell id="CEC4rvlmtcEz_lNYIboy-3" value="xxxx説明書&lt;font face=&quot;Helvetica&quot;&gt;202404.txt&lt;/font&gt;&lt;div&gt;&lt;font face=&quot;Helvetica&quot;&gt;&lt;br&gt;&lt;/font&gt;&lt;/div&gt;" style="sketch=0;pointerEvents=1;shadow=0;dashed=0;html=1;strokeColor=none;fillColor=#505050;labelPosition=center;verticalLabelPosition=bottom;verticalAlign=top;outlineConnect=0;align=center;shape=mxgraph.office.concepts.document;hachureGap=4;jiggle=2;curveFitting=1;fontFamily=Architects Daughter;fontSource=https%3A%2F%2Ffonts.googleapis.com%2Fcss%3Ffamily%3DArchitects%2BDaughter;" vertex="1" parent="1">
          <mxGeometry x="140" y="500" width="110" height="110" as="geometry" />
        </mxCell>
        <mxCell id="CEC4rvlmtcEz_lNYIboy-4" value="xxxx説明書&lt;font face=&quot;Helvetica&quot;&gt;202204_改訂版.txt&lt;/font&gt;&lt;div&gt;&lt;font face=&quot;Helvetica&quot;&gt;&lt;br&gt;&lt;/font&gt;&lt;/div&gt;" style="sketch=0;pointerEvents=1;shadow=0;dashed=0;html=1;strokeColor=none;fillColor=#505050;labelPosition=center;verticalLabelPosition=bottom;verticalAlign=top;outlineConnect=0;align=center;shape=mxgraph.office.concepts.document;hachureGap=4;jiggle=2;curveFitting=1;fontFamily=Architects Daughter;fontSource=https%3A%2F%2Ffonts.googleapis.com%2Fcss%3Ffamily%3DArchitects%2BDaughter;" vertex="1" parent="1">
          <mxGeometry x="304" y="110" width="110" height="110" as="geometry" />
        </mxCell>
        <mxCell id="CEC4rvlmtcEz_lNYIboy-5" value="xxxx説明書&lt;font face=&quot;Helvetica&quot;&gt;202204_修正版版.txt&lt;/font&gt;&lt;div&gt;&lt;font face=&quot;Helvetica&quot;&gt;&lt;br&gt;&lt;/font&gt;&lt;/div&gt;" style="sketch=0;pointerEvents=1;shadow=0;dashed=0;html=1;strokeColor=none;fillColor=#505050;labelPosition=center;verticalLabelPosition=bottom;verticalAlign=top;outlineConnect=0;align=center;shape=mxgraph.office.concepts.document;hachureGap=4;jiggle=2;curveFitting=1;fontFamily=Architects Daughter;fontSource=https%3A%2F%2Ffonts.googleapis.com%2Fcss%3Ffamily%3DArchitects%2BDaughter;" vertex="1" parent="1">
          <mxGeometry x="480" y="110" width="110" height="110" as="geometry" />
        </mxCell>
        <mxCell id="CEC4rvlmtcEz_lNYIboy-6" value="xxxx説明書&lt;font face=&quot;Helvetica&quot;&gt;202304改訂版.txt&lt;/font&gt;&lt;div&gt;&lt;font face=&quot;Helvetica&quot;&gt;&lt;br&gt;&lt;/font&gt;&lt;/div&gt;" style="sketch=0;pointerEvents=1;shadow=0;dashed=0;html=1;strokeColor=none;fillColor=#505050;labelPosition=center;verticalLabelPosition=bottom;verticalAlign=top;outlineConnect=0;align=center;shape=mxgraph.office.concepts.document;hachureGap=4;jiggle=2;curveFitting=1;fontFamily=Architects Daughter;fontSource=https%3A%2F%2Ffonts.googleapis.com%2Fcss%3Ffamily%3DArchitects%2BDaughter;" vertex="1" parent="1">
          <mxGeometry x="304" y="340" width="110" height="110" as="geometry" />
        </mxCell>
        <mxCell id="CEC4rvlmtcEz_lNYIboy-7" value="xxxx説明書&lt;font face=&quot;Helvetica&quot;&gt;202304改訂版v2&lt;/font&gt;&lt;span style=&quot;font-family: Helvetica; background-color: initial;&quot;&gt;.txt&lt;/span&gt;&lt;div&gt;&lt;div&gt;&lt;font face=&quot;Helvetica&quot;&gt;&lt;br&gt;&lt;/font&gt;&lt;/div&gt;&lt;/div&gt;" style="sketch=0;pointerEvents=1;shadow=0;dashed=0;html=1;strokeColor=none;fillColor=#505050;labelPosition=center;verticalLabelPosition=bottom;verticalAlign=top;outlineConnect=0;align=center;shape=mxgraph.office.concepts.document;hachureGap=4;jiggle=2;curveFitting=1;fontFamily=Architects Daughter;fontSource=https%3A%2F%2Ffonts.googleapis.com%2Fcss%3Ffamily%3DArchitects%2BDaughter;" vertex="1" parent="1">
          <mxGeometry x="480" y="340" width="110" height="110" as="geometry" />
        </mxCell>
        <mxCell id="CEC4rvlmtcEz_lNYIboy-9" value="" style="endArrow=classic;html=1;rounded=0;sketch=1;hachureGap=4;jiggle=2;curveFitting=1;fontFamily=Architects Daughter;fontSource=https%3A%2F%2Ffonts.googleapis.com%2Fcss%3Ffamily%3DArchitects%2BDaughter;" edge="1" parent="1">
          <mxGeometry width="50" height="50" relative="1" as="geometry">
            <mxPoint x="120" y="120" as="sourcePoint" />
            <mxPoint x="120" y="620" as="targetPoint" />
          </mxGeometry>
        </mxCell>
        <mxCell id="CEC4rvlmtcEz_lNYIboy-10" value="" style="curved=1;endArrow=classic;html=1;rounded=0;sketch=1;hachureGap=4;jiggle=2;curveFitting=1;fontFamily=Architects Daughter;fontSource=https%3A%2F%2Ffonts.googleapis.com%2Fcss%3Ffamily%3DArchitects%2BDaughter;" edge="1" parent="1" source="CEC4rvlmtcEz_lNYIboy-1" target="CEC4rvlmtcEz_lNYIboy-4">
          <mxGeometry width="50" height="50" relative="1" as="geometry">
            <mxPoint x="210" y="120" as="sourcePoint" />
            <mxPoint x="260" y="70" as="targetPoint" />
            <Array as="points">
              <mxPoint x="260" y="120" />
              <mxPoint x="290" y="40" />
            </Array>
          </mxGeometry>
        </mxCell>
        <mxCell id="CEC4rvlmtcEz_lNYIboy-11" value="" style="curved=1;endArrow=classic;html=1;rounded=0;sketch=1;hachureGap=4;jiggle=2;curveFitting=1;fontFamily=Architects Daughter;fontSource=https%3A%2F%2Ffonts.googleapis.com%2Fcss%3Ffamily%3DArchitects%2BDaughter;" edge="1" parent="1" source="CEC4rvlmtcEz_lNYIboy-1" target="CEC4rvlmtcEz_lNYIboy-5">
          <mxGeometry width="50" height="50" relative="1" as="geometry">
            <mxPoint x="260" y="137" as="sourcePoint" />
            <mxPoint x="339" y="120" as="targetPoint" />
            <Array as="points">
              <mxPoint x="270" y="90" />
              <mxPoint x="310" y="30" />
            </Array>
          </mxGeometry>
        </mxCell>
        <mxCell id="CEC4rvlmtcEz_lNYIboy-14" value="" style="curved=1;endArrow=classic;html=1;rounded=0;sketch=1;hachureGap=4;jiggle=2;curveFitting=1;fontFamily=Architects Daughter;fontSource=https%3A%2F%2Ffonts.googleapis.com%2Fcss%3Ffamily%3DArchitects%2BDaughter;" edge="1" parent="1">
          <mxGeometry width="50" height="50" relative="1" as="geometry">
            <mxPoint x="400" y="340" as="sourcePoint" />
            <mxPoint x="512" y="340" as="targetPoint" />
            <Array as="points">
              <mxPoint x="419" y="300" />
              <mxPoint x="489" y="290" />
            </Array>
          </mxGeometry>
        </mxCell>
      </root>
    </mxGraphModel>
  </diagram>
</mxfile>
